PathFileType	4	(X/Y/Z)	Kaydara																																																																																																																									
DataRate	CameraRate	NumFrames	NumMarkers	Units	OrigDataRate	OrigDataStartFrame	OrigNumFrames																																																																																																																					
30	30	4	41	mm	30	1	142																																																																																																																					
Frame#	Time	PAIB_LFHD			PAIB_RFHD			PAIB_LBHD			PAIB_RBHD			PAIB_LFTShould			PAIB_RFTShould			PAIB_LRRShould			PAIB_RRRShould			PAIB_T10			PAIB_STRN			PAIB_TRUN			PAIB_LSHO			PAIB_LUPA			PAIB_LELB			PAIB_LFRM			PAIB_LWRA			PAIB_LWRB			PAIB_LFIN			PAIB_RSHO			PAIB_RUPA			PAIB_RELB			PAIB_RFRM			PAIB_RWRA			PAIB_RWRB			PAIB_RFIN			PAIB_LFWT			PAIB_RFWT			PAIB_LBWT			PAIB_RBWT			PAIB_LTHI			PAIB_LKNE			PAIB_LSHN			PAIB_LANK			PAIB_LHEE			PAIB_LTOE			PAIB_RTHI			PAIB_RKNE			PAIB_RSHN			PAIB_RANK			PAIB_RHEE			PAIB_RTOE		
		X1	Y1	Z1	X2	Y2	Z2	X3	Y3	Z3	X4	Y4	Z4	X5	Y5	Z5	X6	Y6	Z6	X7	Y7	Z7	X8	Y8	Z8	X9	Y9	Z9	X10	Y10	Z10	X11	Y11	Z11	X12	Y12	Z12	X13	Y13	Z13	X14	Y14	Z14	X15	Y15	Z15	X16	Y16	Z16	X17	Y17	Z17	X18	Y18	Z18	X19	Y19	Z19	X20	Y20	Z20	X21	Y21	Z21	X22	Y22	Z22	X23	Y23	Z23	X24	Y24	Z24	X25	Y25	Z25	X26	Y26	Z26	X27	Y27	Z27	X28	Y28	Z28	X29	Y29	Z29	X30	Y30	Z30	X31	Y31	Z31	X32	Y32	Z32	X33	Y33	Z33	X34	Y34	Z34	X35	Y35	Z35	X36	Y36	Z36	X37	Y37	Z37	X38	Y38	Z38	X39	Y39	Z39	X40	Y40	Z40	X41	Y41	Z41
																																																																																																																												
1	0.01	237.05769	1678.66196	-1944.32831	47.58895	1681.44257	-1952.9158	250.84047	1661.19629	-2071.26678	47.79962	1674.2688	-2070.46661	209.49516	1432.798	-1988.56964	85.5689	1429.51553	-1989.84619	218.55991	1507.81235	-2127.95929	65.61308	1506.14899	-2117.74902	139.99837	1355.28214	-2218.11371	157.24737	1363.37723	-1954.9649	157.08094	1260.10559	-1942.18948	342.78763	1452.43973	-2067.6799	409.52946	1229.12308	-2106.50909	423.56041	1152.83302	-2153.31696	441.06239	1036.26877	-2108.5759	380.29331	926.66245	-2022.98996	421.20453	907.77634	-2088.19946	429.05479	871.55266	-2022.37061	-45.07194	1438.53485	-2043.55515	-121.06389	1283.61786	-2121.79611	-152.57884	1174.08005	-2148.80417	-177.10169	1037.50259	-2130.85968	-121.94886	923.74924	-2046.37421	-188.64506	915.02457	-2094.79446	-182.84315	875.18837	-2032.21359	266.18988	983.72192	-2001.62277	29.52738	977.2686	-1993.17719	198.78056	1040.36598	-2204.56543	50.34705	1021.1232	-2207.164	248.16309	750.09232	-2202.70676	307.41302	505.47459	-2109.44183	290.90845	316.8491	-2098.82889	291.98145	131.86658	-2184.04175	231.63715	119.01617	-2225.25558	292.91962	74.87507	-2003.53287	3.81427	716.6568	-2177.67654	-5.34898	479.43634	-2074.42429	57.40336	293.07178	-2085.88211	26.38138	112.59822	-2203.42682	86.22612	117.84313	-2242.57324	42.29513	76.64838	-2010.34821
2	0.043	236.20321	1679.50058	-1946.82251	51.28283	1681.21552	-1958.00903	252.59184	1662.20657	-2075.69962	48.75638	1674.25003	-2074.54132	210.77202	1433.27042	-1989.64478	86.56655	1429.85962	-1991.55884	220.10351	1506.99829	-2129.56009	67.07019	1505.45334	-2120.09506	141.94895	1353.86642	-2218.909	158.14836	1364.07593	-1955.84641	158.14313	1260.867	-1942.11212	344.51702	1451.94916	-2068.98926	410.62843	1228.35587	-2108.51089	424.46159	1152.62184	-2156.00586	442.09	1035.24155	-2114.27551	381.1871	922.7047	-2032.35779	422.41844	905.98953	-2097.42264	430.24815	867.8891	-2033.07785	-43.85564	1437.98157	-2046.00494	-118.90155	1282.24197	-2123.47092	-150.03787	1172.49672	-2150.05585	-174.52827	1035.98091	-2131.47903	-120.34303	922.87987	-2045.55664	-186.21954	913.60138	-2094.73541	-181.28563	874.34113	-2032.02698	267.35088	983.28514	-1999.71069	30.8151	978.06587	-1991.48956	191.88616	1006.40854	-2217.90375	51.87178	1020.36797	-2205.48553	251.0792	750.70503	-2201.12488	308.69656	505.20119	-2110.9584	291.53442	316.9585	-2100.05722	293.84836	131.55467	-2185.78766	232.94489	118.6027	-2226.16119	292.77901	74.84823	-2003.85468	2.96526	715.89134	-2173.37021	-3.61374	479.47796	-2068.09708	59.0858	293.20805	-2083.18512	24.52316	113.81582	-2201.49902	83.83275	119.5957	-2242.19604	43.48843	76.42921	-2009.84634
3	0.077	236.3295	1680.44891	-1949.30115	49.76082	1683.2843	-1960.48477	253.20707	1662.77954	-2078.8562	49.91013	1674.03809	-2077.99423	211.74631	1433.34564	-1990.26306	87.59683	1430.40146	-1992.79327	221.98179	1506.48682	-2130.73425	68.81001	1504.94431	-2122.37061	144.19625	1352.8537	-2219.57245	158.88619	1364.39407	-1956.70578	158.77358	1261.3588	-1942.20139	346.20239	1451.43677	-2069.41452	411.39336	1227.38525	-2110.08835	424.96708	1152.52396	-2158.53561	442.82169	1034.34341	-2119.83994	381.93916	919.01413	-2041.62338	422.93221	904.32724	-2106.01471	431.86314	864.92706	-2044.02939	-42.46319	1437.54791	-2048.49442	-116.5667	1280.6456	-2124.48914	-147.18971	1170.69267	-2150.30624	-171.82283	1034.41399	-2131.2236	-117.52425	921.51413	-2044.84894	-183.90676	912.3085	-2093.94318	-178.88573	873.06961	-2031.03531	268.42865	983.08296	-1997.77557	31.81647	978.38486	-1989.711	194.34341	1006.8367	-2215.81177	53.75714	1019.88678	-2203.90198	253.58124	751.44035	-2200.54153	309.49762	505.21175	-2112.33475	292.0553	317.13636	-2101.34735	293.85761	131.20934	-2186.78589	233.04007	118.34054	-2226.48651	292.77914	74.9283	-2004.05838	3.19119	715.93079	-2171.30814	-2.46385	479.92992	-2065.53253	60.03994	293.27955	-2082.56927	23.78914	113.96623	-2200.67337	82.92634	119.59366	-2242.00012	44.17979	76.45323	-2009.27383
4	0.11	237.55491	1681.29303	-1952.25616	51.18257	1684.2038	-1963.37845	253.95815	1661.99936	-2081.16745	51.09726	1673.98926	-2080.87814	211.72216	1433.13675	-1990.03006	88.62766	1430.5275	-1994.039	223.41595	1506.18317	-2131.81808	70.21267	1504.43863	-2124.10034	145.96792	1351.74667	-2219.88602	160.05962	1364.80743	-1957.46094	159.993	1261.884	-1942.34558	347.6712	1451.31149	-2070.15625	411.63544	1227.09801	-2111.53687	424.84005	1152.64732	-2160.728	443.22617	1033.9209	-2124.99924	382.95387	916.06537	-2049.94385	424.02161	903.3625	-2114.68063	432.97573	862.05681	-2053.66547	-41.2268	1437.25922	-2050.31525	-114.23748	1279.36867	-2125.67093	-144.15949	1169.09729	-2150.79102	-168.75275	1033.04916	-2130.82489	-114.79753	920.68031	-2043.78006	-181.24655	911.27716	-2092.68433	-175.74635	872.21413	-2029.63348	270.11715	983.18832	-1996.55731	33.29372	977.71103	-1987.96326	195.27315	1006.60393	-2214.35745	54.84308	1019.75861	-2202.16156	254.36451	751.75392	-2200.20905	310.16037	505.14168	-2112.854	292.54398	317.06539	-2101.76117	293.71546	130.65649	-2187.45193	232.89383	118.22139	-2226.51443	292.83535	74.95519	-2004.17389	5.00363	716.77986	-2172.95166	-1.71744	479.65401	-2070.41183	60.45442	292.45907	-2085.32394	24.94277	112.38438	-2202.0195	84.36439	117.22126	-2242.96783	44.31632	76.9682	-2009.91455
